<?xml version="1.0" standalone="no"?>
<!DOCTYPE svg PUBLIC "-//W3C//DTD SVG 20010904//EN"
 "http://www.w3.org/TR/2001/REC-SVG-20010904/DTD/svg10.dtd">
<svg version="1.0" xmlns="http://www.w3.org/2000/svg"
 width="512.000000pt" height="512.000000pt" viewBox="0 0 512.000000 512.000000"
 preserveAspectRatio="xMidYMid meet">
<metadata>
Created by potrace 1.14, written by Peter Selinger 2001-2017
</metadata>
<g transform="translate(0.000000,512.000000) scale(0.100000,-0.100000)"
fill="#000000" stroke="none">
<path d="M1217 4384 c-1 -1 -20 -5 -42 -8 -134 -18 -303 -76 -395 -136 -14
-10 -45 -30 -70 -46 -67 -44 -187 -160 -245 -239 -93 -126 -173 -303 -191
-425 -3 -19 -8 -42 -11 -50 -3 -8 -7 -69 -8 -135 -7 -276 80 -524 258 -731
150 -176 385 -314 597 -350 14 -3 32 -7 40 -9 8 -2 51 -7 95 -10 199 -14 234
-23 317 -76 126 -81 196 -218 193 -375 -7 -377 -466 -561 -735 -294 -75 75
-115 163 -126 275 -9 107 -14 127 -41 177 -126 231 -452 226 -567 -8 -26 -52
-30 -70 -30 -154 0 -111 8 -174 35 -267 53 -187 130 -321 262 -460 212 -222
491 -335 803 -328 61 1 119 5 130 8 10 3 36 8 58 12 62 9 185 53 271 97 307
157 523 457 573 798 9 57 9 251 0 311 -70 490 -481 874 -978 914 -162 13 -196
18 -244 37 -241 94 -342 380 -218 615 45 86 170 183 267 208 52 13 153 14 208
1 179 -43 316 -200 332 -381 10 -109 14 -126 41 -182 89 -185 341 -233 495
-95 115 103 135 256 69 527 -7 28 -17 54 -21 59 -5 6 -9 17 -9 26 0 8 -21 56
-46 105 -151 296 -416 501 -740 571 -65 14 -317 28 -327 18z"/>
<path d="M3627 4375 c-460 -78 -807 -421 -892 -885 -11 -61 -14 -297 -12
-1295 l2 -1220 26 -55 c53 -114 160 -184 279 -184 78 0 105 6 156 32 82 43
149 130 165 215 4 23 8 571 9 1217 0 972 3 1183 14 1221 24 79 66 150 118 201
231 225 605 134 713 -173 52 -147 7 -330 -109 -444 -85 -82 -170 -116 -326
-129 -209 -18 -340 -218 -275 -421 25 -79 105 -162 185 -193 133 -51 431 1
627 109 358 197 571 569 557 974 -5 152 -22 239 -72 365 -74 188 -226 378
-390 489 -122 82 -275 147 -397 167 -16 3 -41 8 -55 10 -57 12 -250 11 -323
-1z"/>
</g>
</svg>
